<svg width="100" height="25" viewBox="0 0 100 25" fill="none" xmlns="http://www.w3.org/2000/svg">
<path d="M62.5 4.29383L61.3801 3.14271C58.7483 0.437604 53.9284 1.3714 52.1881 4.77006C51.3696 6.36848 51.1855 8.67573 52.6786 11.6212C54.1165 14.458 57.1057 17.8538 62.5 21.554C67.8943 17.8538 70.8835 14.458 72.3214 11.6212C73.8145 8.67573 73.6304 6.36848 72.8119 4.77006C71.0716 1.3714 66.2517 0.437604 63.6199 3.14271L62.5 4.29383ZM62.5 23.4375C38.542 7.60689 55.1231 -4.75136 62.2255 1.78607C62.3187 1.87183 62.4102 1.96084 62.5 2.05313C62.5898 1.96084 62.6813 1.87183 62.7745 1.78608C69.8769 -4.75137 86.458 7.60688 62.5 23.4375Z" fill="#222222"/>
<path d="M92.1875 9.375C92.1875 11.9638 90.0888 14.0625 87.5 14.0625C84.9112 14.0625 82.8125 11.9638 82.8125 9.375C82.8125 6.78617 84.9112 4.6875 87.5 4.6875C90.0888 4.6875 92.1875 6.78617 92.1875 9.375Z" fill="#222222"/>
<path fill-rule="evenodd" clip-rule="evenodd" d="M75 12.5C75 5.59644 80.5964 0 87.5 0C94.4036 0 100 5.59644 100 12.5C100 19.4036 94.4036 25 87.5 25C80.5964 25 75 19.4036 75 12.5ZM87.5 1.5625C81.4594 1.5625 76.5625 6.45939 76.5625 12.5C76.5625 15.0835 77.4582 17.4578 78.956 19.3292C80.0671 17.5394 82.5072 15.625 87.5 15.625C92.4928 15.625 94.9329 17.5394 96.044 19.3292C97.5418 17.4578 98.4375 15.0835 98.4375 12.5C98.4375 6.45939 93.5406 1.5625 87.5 1.5625Z" fill="#222222"/>
<path d="M13.6049 2.34339C12.9947 1.7332 12.0053 1.73319 11.3951 2.34339L1.01007 12.7285C0.704976 13.0336 0.704976 13.5282 1.01007 13.8333C1.31517 14.1384 1.80983 14.1384 2.11493 13.8333L3.125 12.8232V21.0934C3.125 22.3878 4.17433 23.4371 5.46875 23.4371H19.5312C20.8257 23.4371 21.875 22.3878 21.875 21.0934V12.8232L22.8851 13.8333C23.1902 14.1384 23.6848 14.1384 23.9899 13.8333C24.295 13.5282 24.295 13.0336 23.9899 12.7285L20.3125 9.05103V3.90589C20.3125 3.47442 19.9627 3.12464 19.5312 3.12464H17.9688C17.5373 3.12464 17.1875 3.47442 17.1875 3.90589V5.92603L13.6049 2.34339ZM20.3125 11.2607V21.0934C20.3125 21.5249 19.9627 21.8746 19.5312 21.8746H5.46875C5.03728 21.8746 4.6875 21.5249 4.6875 21.0934V11.2607L12.5 3.44824L20.3125 11.2607Z" fill="black"/>
<path d="M43.3471 16.1623C44.5827 14.4802 45.3125 12.4034 45.3125 10.1562C45.3125 4.54711 40.7654 0 35.1562 0C29.5471 0 25 4.54711 25 10.1562C25 15.7654 29.5471 20.3125 35.1562 20.3125C37.404 20.3125 39.4813 19.5823 41.1637 18.3461L41.1623 18.3471C41.2084 18.4096 41.2597 18.4694 41.3163 18.526L47.3327 24.5424C47.9428 25.1526 48.9322 25.1526 49.5424 24.5424C50.1526 23.9322 50.1526 22.9428 49.5424 22.3327L43.526 16.3163C43.4694 16.2597 43.4096 16.2084 43.3471 16.1623ZM43.75 10.1562C43.75 14.9024 39.9024 18.75 35.1562 18.75C30.4101 18.75 26.5625 14.9024 26.5625 10.1562C26.5625 5.41005 30.4101 1.5625 35.1562 1.5625C39.9024 1.5625 43.75 5.41005 43.75 10.1562Z" fill="#222222"/>
</svg>
