<svg width="16" height="16" viewBox="0 0 16 16" fill="none" xmlns="http://www.w3.org/2000/svg">
<path fill-rule="evenodd" clip-rule="evenodd" d="M2 4.5C2 5.32843 2.67157 6 3.5 6C4.32843 6 5 5.32843 5 4.5C5 3.67157 4.32843 3 3.5 3C2.67157 3 2 3.67157 2 4.5ZM3 6.94999C1.85888 6.71836 1 5.70948 0.999999 4.5C0.999999 3.29052 1.85888 2.28164 3 2.05001L3 -8.74228e-08L4 -1.31134e-07L4 2.05001C5.14112 2.28164 6 3.29052 6 4.5C6 5.70948 5.14112 6.71836 4 6.94999L4 16L3 16L3 6.94999ZM7 11.5C7 12.3284 7.67157 13 8.5 13C9.32843 13 10 12.3284 10 11.5C10 10.6716 9.32843 10 8.5 10C7.67157 10 7 10.6716 7 11.5ZM8 13.95C6.85888 13.7184 6 12.7095 6 11.5C6 10.2905 6.85888 9.28164 8 9.05001L8 -3.0598e-07L9 -3.49691e-07L9 9.05001C10.1411 9.28164 11 10.2905 11 11.5C11 12.7095 10.1411 13.7184 9 13.95L9 16L8 16L8 13.95ZM12 4.5C12 5.32843 12.6716 6 13.5 6C14.3284 6 15 5.32843 15 4.5C15 3.67157 14.3284 3 13.5 3C12.6716 3 12 3.67157 12 4.5ZM13 6.94999C11.8589 6.71836 11 5.70948 11 4.5C11 3.29052 11.8589 2.28164 13 2.05001L13 -5.24537e-07L14 -5.68248e-07L14 2.05001C15.1411 2.28164 16 3.29052 16 4.5C16 5.70948 15.1411 6.71836 14 6.94999L14 16L13 16L13 6.94999Z" fill="#222222"/>
</svg>
