<svg width="47" height="27" viewBox="0 0 47 27" fill="none" xmlns="http://www.w3.org/2000/svg">
<path d="M7.16797 4.40039V8.24805C6.65365 8.24805 6.29883 8.3457 6.10352 8.54102C5.91471 8.72982 5.79427 9.10742 5.74219 9.67383C5.57292 11.5553 4.84375 12.8835 3.55469 13.6582C2.87109 14.0618 1.90104 14.2637 0.644531 14.2637H0.136719V10.3965H0.302734C0.888672 10.3965 1.30534 10.276 1.55273 10.0352C1.80664 9.78776 1.95312 9.35807 1.99219 8.74609C2.04427 7.75 2.13542 7.05013 2.26562 6.64648C2.40234 6.24284 2.67578 5.84245 3.08594 5.44531C3.80208 4.7487 4.79492 4.40039 6.06445 4.40039H7.16797ZM11.0215 0.669922V4.74219C11.64 4.29297 12.2585 4.06836 12.877 4.06836C13.8145 4.06836 14.5566 4.4069 15.1035 5.08398C15.6569 5.76107 15.9336 6.67578 15.9336 7.82812V14H12.2812V8.85352C12.2812 8.43685 12.2357 8.1569 12.1445 8.01367C12.0599 7.87044 11.8906 7.79883 11.6367 7.79883C11.2266 7.79883 11.0215 8.10156 11.0215 8.70703V14H7.36914V0.669922H11.0215ZM22.4824 10.3477V14.127C22.1829 14.179 21.9095 14.2051 21.6621 14.2051C20.1973 14.2051 18.9766 13.7233 18 12.7598C17.0234 11.7962 16.5352 10.5885 16.5352 9.13672C16.5352 7.72396 17.0267 6.52604 18.0098 5.54297C18.9993 4.5599 20.2005 4.06836 21.6133 4.06836C23.1888 4.06836 24.429 4.5306 25.334 5.45508C26.2454 6.37305 26.7012 7.62956 26.7012 9.22461V14H23.0488V9.48828C23.0488 8.97396 22.9219 8.5638 22.668 8.25781C22.4206 7.95182 22.0853 7.79883 21.6621 7.79883C21.278 7.79883 20.946 7.9388 20.666 8.21875C20.3861 8.4987 20.2461 8.83073 20.2461 9.21484C20.2461 9.61849 20.373 9.95052 20.627 10.2109C20.8809 10.4714 21.2031 10.6016 21.5938 10.6016C21.9128 10.6016 22.209 10.5169 22.4824 10.3477ZM33.1719 4.16602V8.07227C32.918 7.92904 32.6868 7.85742 32.4785 7.85742C31.8145 7.85742 31.4824 8.36523 31.4824 9.38086V14H27.8301V8.67773C27.8301 7.27148 28.2142 6.15169 28.9824 5.31836C29.7507 4.47852 30.776 4.05859 32.0586 4.05859C32.3451 4.05859 32.7161 4.0944 33.1719 4.16602ZM42.8262 9.72266H37.2891C37.2044 9.44271 37.1621 9.18555 37.1621 8.95117C37.1621 8.62565 37.2207 8.30664 37.3379 7.99414H39.1934C39.0632 7.27148 38.6562 6.91016 37.9727 6.91016C37.5169 6.91016 37.1458 7.10547 36.8594 7.49609C36.5729 7.88021 36.4297 8.375 36.4297 8.98047C36.4297 9.61198 36.5664 10.123 36.8398 10.5137C37.1198 10.9043 37.4844 11.0996 37.9336 11.0996C38.2982 11.0996 38.6497 10.9173 38.9883 10.5527L41.0684 13.0527C40.0983 13.8145 39.0208 14.1953 37.8359 14.1953C36.3906 14.1953 35.1764 13.7103 34.1934 12.7402C33.2103 11.7702 32.7188 10.569 32.7188 9.13672C32.7188 7.71094 33.2135 6.50651 34.2031 5.52344C35.1992 4.54036 36.4199 4.04883 37.8652 4.04883C39.278 4.04883 40.4629 4.5306 41.4199 5.49414C42.3835 6.45117 42.8652 7.63281 42.8652 9.03906C42.8652 9.18229 42.8522 9.41016 42.8262 9.72266ZM7.16797 16.4004V20.248C6.65365 20.248 6.29883 20.3457 6.10352 20.541C5.91471 20.7298 5.79427 21.1074 5.74219 21.6738C5.57292 23.5553 4.84375 24.8835 3.55469 25.6582C2.87109 26.0618 1.90104 26.2637 0.644531 26.2637H0.136719V22.3965H0.302734C0.888672 22.3965 1.30534 22.276 1.55273 22.0352C1.80664 21.7878 1.95312 21.3581 1.99219 20.7461C2.04427 19.75 2.13542 19.0501 2.26562 18.6465C2.40234 18.2428 2.67578 17.8424 3.08594 17.4453C3.80208 16.7487 4.79492 16.4004 6.06445 16.4004H7.16797ZM11.9883 16.0586C13.3685 16.0586 14.5501 16.5566 15.5332 17.5527C16.5228 18.5423 17.0176 19.7305 17.0176 21.1172C17.0176 22.5234 16.5163 23.7214 15.5137 24.7109C14.5176 25.7005 13.3132 26.1953 11.9004 26.1953C10.4876 26.1953 9.27995 25.7005 8.27734 24.7109C7.27474 23.7148 6.77344 22.5169 6.77344 21.1172C6.77344 19.6914 7.27474 18.4935 8.27734 17.5234C9.27995 16.5469 10.5169 16.0586 11.9883 16.0586ZM11.8906 19.6621C11.5 19.6621 11.168 19.8053 10.8945 20.0918C10.6211 20.3717 10.4844 20.7168 10.4844 21.127C10.4844 21.5306 10.6211 21.8757 10.8945 22.1621C11.1745 22.4486 11.5065 22.5918 11.8906 22.5918C12.2812 22.5918 12.6133 22.4486 12.8867 22.1621C13.1667 21.8757 13.3066 21.5306 13.3066 21.127C13.3066 20.7168 13.1699 20.3717 12.8965 20.0918C12.623 19.8053 12.2878 19.6621 11.8906 19.6621ZM17.541 16.4004H21.1934V21.8984C21.1934 22.4518 21.4245 22.7285 21.8867 22.7285C22.3424 22.7285 22.5703 22.4518 22.5703 21.8984V16.4004H26.2227V21.8301C26.2227 23.0931 25.8027 24.1608 24.9629 25.0332C24.123 25.8991 23.0944 26.332 21.877 26.332C20.4902 26.332 19.3737 25.8275 18.5273 24.8184C17.8698 24.0306 17.541 22.9368 17.541 21.5371V16.4004ZM36.043 26H32.3906V20.502C32.3906 19.9421 32.1595 19.6621 31.6973 19.6621C31.2415 19.6621 31.0137 19.9421 31.0137 20.502V26H27.3613V20.5703C27.3613 19.3008 27.7812 18.2331 28.6211 17.3672C29.4609 16.4948 30.4896 16.0586 31.707 16.0586C33.1003 16.0586 34.2168 16.5632 35.0566 17.5723C35.7142 18.36 36.043 19.457 36.043 20.8633V26ZM43.1777 12.6699H46.8301V20.7852C46.8301 22.276 46.4395 23.4902 45.6582 24.4277C45.209 24.9681 44.6361 25.3978 43.9395 25.7168C43.2493 26.0358 42.5397 26.1953 41.8105 26.1953C40.3587 26.1953 39.1348 25.707 38.1387 24.7305C37.1426 23.7539 36.6445 22.556 36.6445 21.1367C36.6445 19.763 37.1393 18.5749 38.1289 17.5723C39.1185 16.5697 40.2904 16.0684 41.6445 16.0684C41.8594 16.0684 42.1849 16.0879 42.6211 16.127V20.1504C42.3216 19.916 42.0221 19.7988 41.7227 19.7988C41.3451 19.7988 41.0195 19.9388 40.7461 20.2188C40.4792 20.4922 40.3457 20.8242 40.3457 21.2148C40.3457 21.5924 40.4857 21.918 40.7656 22.1914C41.0456 22.4583 41.3809 22.5918 41.7715 22.5918C42.709 22.5918 43.1777 21.944 43.1777 20.6484V12.6699Z" fill="#222222"/>
</svg>
